<svg width="33" height="24" viewBox="0 0 33 24" fill="none" xmlns="http://www.w3.org/2000/svg">
<path d="M15.2921 6.292C15.385 6.19887 15.4954 6.12499 15.6168 6.07457C15.7383 6.02416 15.8686 5.99821 16.0001 5.99821C16.1316 5.99821 16.2619 6.02416 16.3834 6.07457C16.5049 6.12499 16.6152 6.19887 16.7081 6.292L21.0001 10.586L25.2921 6.292C25.4799 6.10423 25.7346 5.99874 26.0001 5.99874C26.2657 5.99874 26.5203 6.10423 26.7081 6.292C26.8959 6.47977 27.0014 6.73445 27.0014 7C27.0014 7.26555 26.8959 7.52023 26.7081 7.708L22.4141 12L26.7081 16.292C26.8959 16.4798 27.0014 16.7344 27.0014 17C27.0014 17.2656 26.8959 17.5202 26.7081 17.708C26.5203 17.8958 26.2657 18.0013 26.0001 18.0013C25.7346 18.0013 25.4799 17.8958 25.2921 17.708L21.0001 13.414L16.7081 17.708C16.5206 17.8958 16.2662 18.0014 16.0008 18.0016C15.7355 18.0017 15.4809 17.8965 15.2931 17.709C15.1053 17.5215 14.9997 17.2671 14.9996 17.0017C14.9994 16.7363 15.1046 16.4818 15.2921 16.294L19.5861 12L15.2921 7.708C15.199 7.61511 15.1251 7.50476 15.0747 7.38327C15.0243 7.26178 14.9983 7.13153 14.9983 7C14.9983 6.86847 15.0243 6.73822 15.0747 6.61673C15.1251 6.49524 15.199 6.38489 15.2921 6.292ZM10.1721 1.328C11.0961 0.474093 12.308 -0.000104519 13.5661 1.72799e-08H28.0001C29.3262 1.72799e-08 30.598 0.526784 31.5356 1.46447C32.4733 2.40215 33.0001 3.67392 33.0001 5V19C33.0001 20.3261 32.4733 21.5979 31.5356 22.5355C30.598 23.4732 29.3262 24 28.0001 24H13.5661C12.308 24.0001 11.0961 23.5259 10.1721 22.672L2.59811 15.672C2.09155 15.2038 1.68733 14.6359 1.41087 14.004C1.13442 13.3721 0.991699 12.6898 0.991699 12C0.991699 11.3102 1.13442 10.6279 1.41087 9.99599C1.68733 9.36406 2.09155 8.79615 2.59811 8.328L10.1721 1.328ZM13.5661 2C12.8112 2.00036 12.0842 2.28531 11.5301 2.798L3.95611 9.798C3.65224 10.0789 3.40976 10.4196 3.24393 10.7987C3.07809 11.1779 2.99248 11.5872 2.99248 12.001C2.99248 12.4148 3.07809 12.8241 3.24393 13.2033C3.40976 13.5824 3.65224 13.9231 3.95611 14.204L11.5301 21.204C12.0845 21.716 12.8115 22.0002 13.5661 22H28.0001C28.7958 22 29.5588 21.6839 30.1214 21.1213C30.684 20.5587 31.0001 19.7956 31.0001 19V5C31.0001 4.20435 30.684 3.44129 30.1214 2.87868C29.5588 2.31607 28.7958 2 28.0001 2H13.5661Z" fill="#ABEAFF"/>
</svg>
