<svg width="32" height="40" viewBox="0 0 32 40" fill="none" xmlns="http://www.w3.org/2000/svg">
<path d="M0.6875 0.09375V39.9062H31.3125V0.09375H0.6875ZM3.75 3.15625H28.25V36.8438H3.75V3.15625ZM6.8125 6.21875V15.4062H25.1875V6.21875H6.8125ZM9.875 9.28125H22.125V12.3438H9.875V9.28125ZM8.34375 18.4688V21.5312H11.4062V18.4688H8.34375ZM14.4688 18.4688V21.5312H17.5312V18.4688H14.4688ZM20.5938 18.4688V21.5312H23.6562V18.4688H20.5938ZM8.34375 24.5938V27.6562H11.4062V24.5938H8.34375ZM14.4688 24.5938V27.6562H17.5312V24.5938H14.4688ZM20.5938 24.5938V27.6562H23.6562V24.5938H20.5938ZM8.34375 30.7188V33.7812H11.4062V30.7188H8.34375ZM14.4688 30.7188V33.7812H17.5312V30.7188H14.4688ZM20.5938 30.7188V33.7812H23.6562V30.7188H20.5938Z" fill="#ABEAFF"/>
</svg>
