<svg width="19" height="18" viewBox="0 0 19 18" fill="none" xmlns="http://www.w3.org/2000/svg">
<path d="M16.3519 15.352C15.5182 16.187 14.5281 16.8495 13.4382 17.3015C12.3482 17.7535 11.1799 17.9862 9.9999 17.9862C8.81995 17.9862 7.65158 17.7535 6.56164 17.3015C5.47171 16.8495 4.48159 16.187 3.64795 15.352C3.54744 15.2518 3.46769 15.1328 3.41328 15.0017C3.35886 14.8707 3.33085 14.7302 3.33085 14.5883C3.33085 14.4464 3.35886 14.3059 3.41328 14.1748C3.46769 14.0438 3.54744 13.9248 3.64795 13.8246C3.85251 13.6259 4.12645 13.5148 4.41162 13.5148C4.69679 13.5148 4.97073 13.6259 5.17529 13.8246C6.12928 14.7775 7.34434 15.4262 8.66692 15.6887C9.98949 15.9512 11.3602 15.8157 12.6058 15.2993C13.8514 14.783 14.9159 13.9089 15.6649 12.7877C16.4138 11.6665 16.8135 10.3484 16.8135 9.00001C16.8135 7.65164 16.4138 6.33354 15.6649 5.21231C14.9159 4.09107 13.8514 3.21704 12.6058 2.70069C11.3602 2.18434 9.98949 2.04884 8.66692 2.31133C7.34434 2.57382 6.12928 3.22251 5.17529 4.1754L3.9624 5.37931H5.66943C5.95537 5.37931 6.22959 5.4929 6.43178 5.69508C6.63397 5.89727 6.74756 6.1715 6.74756 6.45743C6.74756 6.74337 6.63397 7.01759 6.43178 7.21978C6.22959 7.42197 5.95537 7.53556 5.66943 7.53556H1.35693C1.071 7.53556 0.796772 7.42197 0.594584 7.21978C0.392396 7.01759 0.278809 6.74337 0.278809 6.45743V2.14493C0.278809 2.00335 0.306695 1.86316 0.360876 1.73235C0.415057 1.60155 0.494471 1.4827 0.594584 1.38258C0.694697 1.28247 0.813549 1.20306 0.944353 1.14888C1.07516 1.09469 1.21535 1.06681 1.35693 1.06681C1.49852 1.06681 1.63871 1.09469 1.76951 1.14888C1.90032 1.20306 2.01917 1.28247 2.11928 1.38258C2.2194 1.4827 2.29881 1.60155 2.35299 1.73235C2.40717 1.86316 2.43506 2.00335 2.43506 2.14493V3.85196L3.64795 2.64806C5.34242 1.01148 7.6119 0.105907 9.96757 0.126377C12.3232 0.146847 14.5766 1.09172 16.2424 2.7575C17.9082 4.42328 18.8531 6.67667 18.8735 9.03234C18.894 11.388 17.9884 13.6575 16.3519 15.352Z" fill="#ABEAFF"/>
</svg>
